<?xml version="1.0" encoding="UTF-8"?>
<svg width="32" height="32" viewBox="0 0 32 32" fill="none" xmlns="http://www.w3.org/2000/svg">
    <path d="M16 4C9.373 4 4 9.373 4 16C4 22.627 9.373 28 16 28C22.627 28 28 22.627 28 16C28 9.373 22.627 4 16 4ZM16 26C10.486 26 6 21.514 6 16C6 10.486 10.486 6 16 6C21.514 6 26 10.486 26 16C26 21.514 21.514 26 16 26Z" fill="currentColor"/>
    <path d="M20.5 11H11.5C10.672 11 10 11.672 10 12.5V19.5C10 20.328 10.672 21 11.5 21H20.5C21.328 21 22 20.328 22 19.5V12.5C22 11.672 21.328 11 20.5 11ZM12 13H14V19H12V13ZM18 13H20V19H18V13Z" fill="currentColor"/>
</svg> 