<?xml version="1.0" encoding="UTF-8"?>
<svg width="32" height="32" viewBox="0 0 32 32" fill="none" xmlns="http://www.w3.org/2000/svg">
    <path d="M16 4C9.373 4 4 9.373 4 16C4 22.627 9.373 28 16 28C22.627 28 28 22.627 28 16C28 9.373 22.627 4 16 4ZM16 26C10.486 26 6 21.514 6 16C6 10.486 10.486 6 16 6C21.514 6 26 10.486 26 16C26 21.514 21.514 26 16 26Z" fill="currentColor"/>
    <path d="M19 12C17.895 12 17 12.895 17 14C17 15.105 17.895 16 19 16C20.105 16 21 15.105 21 14C21 12.895 20.105 12 19 12ZM13 12C11.895 12 11 12.895 11 14C11 15.105 11.895 16 13 16C14.105 16 15 15.105 15 14C15 12.895 14.105 12 13 12ZM16 17C13.5 17 11.5 18.5 11.5 20H20.5C20.5 18.5 18.5 17 16 17Z" fill="currentColor"/>
</svg> 